<svg width="173" height="148" version="1.1" xmlns="http://www.w3.org/2000/svg" desc="Created with imagetracer.js version 1.2.6" ><path fill="rgb(219,84,78)" stroke="rgb(219,84,78)" stroke-width="1" opacity="1" d="M 5.5 26 L 6 28.5 L 5 28.5 L 5.5 26 Z " /><path fill="rgb(219,84,78)" stroke="rgb(219,84,78)" stroke-width="1" opacity="1" d="M 10.5 49 L 11.5 51 L 10.5 49 Z " /><path fill="rgb(219,84,78)" stroke="rgb(219,84,78)" stroke-width="1" opacity="1" d="M 51.5 53 L 55 54.5 L 53.5 55 L 51.5 53 Z " /><path fill="rgb(219,84,78)" stroke="rgb(219,84,78)" stroke-width="1" opacity="1" d="M 57.5 56 L 60 57.5 L 58.5 57 L 57.5 56 Z " /><path fill="rgb(219,84,78)" stroke="rgb(219,84,78)" stroke-width="1" opacity="1" d="M 65.5 60 L 68 61.5 L 66.5 61 L 65.5 60 Z " /><path fill="rgb(244,67,54)" stroke="rgb(244,67,54)" stroke-width="1" opacity="1" d="M 52.5 3 L 142 47.5 L 98.5 67 L 90.5 68 L 13.5 30 L 7 25.5 Q 5.9 22.2 8.5 23 L 52.5 3 Z " /><path fill="rgb(94,118,94)" stroke="rgb(94,118,94)" stroke-width="1" opacity="1" d="M 58 0 L 63.5 0 L 149 43.5 L 142.5 47 L 54 2.5 L 56.5 1 L 58 1.5 L 58 0 Z " /><path fill="rgb(94,118,94)" stroke="rgb(94,118,94)" stroke-width="1" opacity="1" d="M 69.5 0 L 79.5 0 L 80 1.5 L 82.5 2 Q 84.8 1.3 84 3.5 L 86 3.5 L 86.5 5 L 88.5 5 L 92 6 L 92.5 8 Q 94 5.5 95.5 9 Q 98.8 7.9 98 10.5 Q 99.8 8.9 101.5 12 Q 104.8 10.9 104 13.5 L 106 13.5 Q 105.1 16.5 109.5 15 L 112 16 Q 110.8 19 114.5 18 L 118 19 L 118.5 21 Q 120 18.5 121.5 22 Q 124.8 20.9 124 23.5 L 126 23.5 Q 125.1 26.5 129.5 25 L 132 26 Q 130.8 29 134.5 28 L 138 29 Q 136.8 32 140.5 31 L 164 43.5 L 160.5 43 L 154.5 43 L 149.5 41 L 69.5 1 L 69.5 0 Z " /><path fill="rgb(94,118,94)" stroke="rgb(94,118,94)" stroke-width="1" opacity="1" d="M 155.5 46 L 158 46.5 L 155.5 47 L 155.5 46 Z " /><path fill="rgb(94,118,94)" stroke="rgb(94,118,94)" stroke-width="1" opacity="1" d="M 159.5 47 L 163 49.5 L 160.5 48 L 159.5 47 Z " /><path fill="rgb(94,118,94)" stroke="rgb(94,118,94)" stroke-width="1" opacity="1" d="M 163.5 51 L 164 55.5 L 163 55.5 L 163.5 51 Z " /><path fill="rgb(94,118,94)" stroke="rgb(94,118,94)" stroke-width="1" opacity="1" d="M 162.5 57 L 160.5 60 L 162.5 57 Z " /><path fill="rgb(94,118,94)" stroke="rgb(94,118,94)" stroke-width="1" opacity="1" d="M 158.5 60 L 157.5 62 L 156 61.5 L 158.5 60 Z " /><path fill="rgb(94,118,94)" stroke="rgb(94,118,94)" stroke-width="1" opacity="1" d="M 152.5 63 L 151.5 65 L 150 64.5 L 152.5 63 Z " /><path fill="rgb(94,118,94)" stroke="rgb(94,118,94)" stroke-width="1" opacity="1" d="M 15.5 65 L 16.5 67 L 15.5 65 Z " /><path fill="rgb(94,118,94)" stroke="rgb(94,118,94)" stroke-width="1" opacity="1" d="M 26.5 65 L 40 72.5 L 58 100 L 54 102.5 Q 54.7 105.1 52 104 L 27 67.5 L 26.5 65 Z " /><path fill="rgb(94,118,94)" stroke="rgb(94,118,94)" stroke-width="1" opacity="1" d="M 145.5 66 L 147 66.5 L 141.5 69 L 141.5 68 L 145.5 66 Z " /><path fill="rgb(94,118,94)" stroke="rgb(94,118,94)" stroke-width="1" opacity="1" d="M 18.5 69 L 19.5 71 L 18.5 69 Z " /><path fill="rgb(94,118,94)" stroke="rgb(94,118,94)" stroke-width="1" opacity="1" d="M 20.5 72 L 21.5 74 L 20.5 72 Z " /><path fill="rgb(94,118,94)" stroke="rgb(94,118,94)" stroke-width="1" opacity="1" d="M 91.5 72 L 94 72.5 L 91.5 73 L 91.5 72 Z " /><path fill="rgb(94,118,94)" stroke="rgb(94,118,94)" stroke-width="1" opacity="1" d="M 142.5 72 Q 146.5 71.5 147 74.5 L 121 85.5 L 125.5 86 L 152 80 Q 152.8 83.8 149.5 85 L 75 100 L 75 96 L 73.5 96 L 61 99 L 45 75.5 L 46.5 75 L 67.5 86 L 66 83.5 L 66.5 82 L 86.5 93 L 95.5 94 L 140.5 74 L 142.5 72 Z M 71 88 L 76 95 Q 81 96 82 94 L 71 88 Z " /><path fill="rgb(94,118,94)" stroke="rgb(94,118,94)" stroke-width="1" opacity="1" d="M 146.5 89 L 152.5 98 L 155.5 100 L 158.5 101 Q 160.8 100.3 160 102.5 Q 162.5 100.7 165 105.5 L 159.5 103 L 155.5 103 L 152.5 106 L 138.5 109 L 136.5 109 L 113.5 113 L 109.5 115 L 107.5 115 L 76 121 Q 75 117.2 77.5 116 L 149 102 L 146.5 89 Z " /><path fill="rgb(94,118,94)" stroke="rgb(94,118,94)" stroke-width="1" opacity="1" d="M 62.5 102 L 64 102.5 L 61.5 104 L 62.5 102 Z " /><path fill="rgb(94,118,94)" stroke="rgb(94,118,94)" stroke-width="1" opacity="1" d="M 59.5 104 L 58.5 106 L 59.5 104 Z " /><path fill="rgb(94,118,94)" stroke="rgb(94,118,94)" stroke-width="1" opacity="1" d="M 153.5 107 L 159 107.5 L 153.5 108 L 153.5 107 Z " /><path fill="rgb(94,118,94)" stroke="rgb(94,118,94)" stroke-width="1" opacity="1" d="M 6.5 111 L 7.5 113 L 6.5 111 Z " /><path fill="rgb(94,118,94)" stroke="rgb(94,118,94)" stroke-width="1" opacity="1" d="M 163.5 112 L 164 115.5 L 163 115.5 L 163.5 112 Z " /><path fill="rgb(94,118,94)" stroke="rgb(94,118,94)" stroke-width="1" opacity="1" d="M 57.5 115 L 59.5 118 L 57.5 115 Z " /><path fill="rgb(94,118,94)" stroke="rgb(94,118,94)" stroke-width="1" opacity="1" d="M 71.5 117 L 74 117.5 L 71.5 118 L 71.5 117 Z " /><path fill="rgb(94,118,94)" stroke="rgb(94,118,94)" stroke-width="1" opacity="1" d="M 160.5 119 L 158.5 122 L 160.5 119 Z " /><path fill="rgb(94,118,94)" stroke="rgb(94,118,94)" stroke-width="1" opacity="1" d="M 165.5 120 L 162.5 124 L 165.5 120 Z " /><path fill="rgb(94,118,94)" stroke="rgb(94,118,94)" stroke-width="1" opacity="1" d="M 64.5 122 L 67 122.5 L 64.5 123 L 64.5 122 Z " /><path fill="rgb(94,118,94)" stroke="rgb(94,118,94)" stroke-width="1" opacity="1" d="M 153.5 123 L 155 123.5 L 151.5 125 L 151.5 124 L 153.5 123 Z " /><path fill="rgb(94,118,94)" stroke="rgb(94,118,94)" stroke-width="1" opacity="1" d="M 94.5 132 L 97 132.5 L 94.5 133 L 94.5 132 Z " /><path fill="rgb(42,72,98)" stroke="rgb(42,72,98)" stroke-width="1" opacity="1" d="M 64.5 0 L 71.5 1 L 149.5 41 L 161.5 44 Q 163.3 41.2 165 45.5 Q 168.2 48.8 167 56.5 L 162.5 63 L 143 72 L 143 68 L 144.5 68 L 157.5 62 L 163 57.5 L 164 51.5 L 160.5 47 L 155.5 46 L 143.5 51 L 143 47.5 L 149 43.5 L 64.5 1 L 64.5 0 Z " /><path fill="rgb(42,72,98)" stroke="rgb(42,72,98)" stroke-width="1" opacity="1" d="M 11 55 L 66 82 L 68 85.5 L 66.5 86 L 45.5 75 L 47 77.5 L 61 99 L 75 96 Q 77.1 101.2 72.5 100 L 62.5 102 L 58 105.5 Q 55.7 108.7 57 115.5 Q 59.2 120.3 67.5 119 L 76 117 L 76 121 L 77.5 121 L 108.5 114 L 110.5 114 L 132.5 110 L 137.5 108 L 139.5 108 L 152.5 106 L 155.5 103 L 160.5 102 Q 168.3 105.3 167 117.5 L 160.5 125 L 109.5 148 L 102.5 148 L 102.5 147 L 152.5 125 Q 159.3 122.8 163 117.5 L 164 112.5 L 160.5 108 L 153.5 107 L 98.5 132 L 91.5 133 L 69.5 122 L 64.5 122 L 62.5 123 Q 55.9 122.1 53 117.5 L 50 112 L 47.5 112 L 21.5 99 L 6 89.5 L 6.5 85 L 7 87 L 38.5 103 L 39 101.5 L 25 83.5 L 22 77.5 L 23 75.5 L 12 60.5 L 11 55 Z M 27 66 L 52 104 Q 55 105 54 103 L 58 100 L 40 73 L 27 66 Z M 124 114 L 110 118 L 104 118 L 96 121 L 90 121 L 80 124 L 89 128 L 100 127 L 127 115 L 124 114 Z " /><path fill="rgb(42,72,98)" stroke="rgb(42,72,98)" stroke-width="1" opacity="1" d="M 154.5 99 L 157 100.5 L 155.5 100 L 154.5 99 Z " /><path fill="rgb(42,72,98)" stroke="rgb(42,72,98)" stroke-width="1" opacity="1" d="M 8.5 105 L 11 105.5 L 10 111 L 84 147.5 L 76.5 148 L 9.5 114 L 6 110.5 Q 5.3 105.8 8.5 105 Z " /><path fill="rgb(254,255,255)" stroke="rgb(254,255,255)" stroke-width="1" opacity="1" d="M 0 0 L 56 0.5 L 11.5 20 L 5 24.5 Q 3.8 30.8 7.5 32 L 14 35.5 L 12 35.5 L 13 37.5 L 12 43 Q 6.4 42 5 46.5 Q 4 53 8.5 54 Q 11.3 53.4 10 59.5 L 22 75.5 Q 17.1 80.6 8.5 82 L 5 85.5 L 6 92 L 17 97.5 L 15.5 97 L 12.5 96 L 13 97.5 L 12 103 L 5 106.5 L 5 110.5 L 7 114 L 74 147.5 L 0 148 L 0 0 Z " /><path fill="rgb(254,255,255)" stroke="rgb(254,255,255)" stroke-width="1" opacity="1" d="M 82.5 0 L 173 0 L 173 148 L 113 147.5 L 150.5 131 L 162.5 125 L 166 121.5 Q 169.2 118.2 168 110.5 L 166 105.5 L 162.5 102 L 150 94.5 L 147 89.5 L 147 86 L 153 82.5 L 153 79.5 L 146 72.5 L 161.5 65 L 166 60.5 Q 169 57.5 168 50.5 Q 166.2 43.3 160.5 40 L 83.5 2 L 82.5 0 Z " /><path fill="rgb(254,255,255)" stroke="rgb(254,255,255)" stroke-width="1" opacity="1" d="M 16.5 36 L 20 38.5 L 18.5 38 L 16.5 36 Z " /><path fill="rgb(254,255,255)" stroke="rgb(254,255,255)" stroke-width="1" opacity="1" d="M 22.5 39 L 26 41.5 L 24.5 41 L 22.5 39 Z " /><path fill="rgb(254,255,255)" stroke="rgb(254,255,255)" stroke-width="1" opacity="1" d="M 30.5 43 L 31.5 45 L 30.5 43 Z " /><path fill="rgb(254,255,255)" stroke="rgb(254,255,255)" stroke-width="1" opacity="1" d="M 11.5 46 L 11 47.5 L 10.5 49 L 10 47.5 L 11.5 46 Z " /><path fill="rgb(254,255,255)" stroke="rgb(254,255,255)" stroke-width="1" opacity="1" d="M 36.5 46 L 37.5 48 L 36.5 46 Z " /><path fill="rgb(254,255,255)" stroke="rgb(254,255,255)" stroke-width="1" opacity="1" d="M 41.5 49 L 44 50.5 L 42.5 50 L 41.5 49 Z " /><path fill="rgb(254,255,255)" stroke="rgb(254,255,255)" stroke-width="1" opacity="1" d="M 16.5 51 L 19 52.5 L 17.5 53 L 16.5 51 Z " /><path fill="rgb(254,255,255)" stroke="rgb(254,255,255)" stroke-width="1" opacity="1" d="M 22.5 54 L 23.5 56 L 22.5 54 Z " /><path fill="rgb(254,255,255)" stroke="rgb(254,255,255)" stroke-width="1" opacity="1" d="M 55.5 56 L 58 57.5 L 56.5 57 L 55.5 56 Z " /><path fill="rgb(254,255,255)" stroke="rgb(254,255,255)" stroke-width="1" opacity="1" d="M 28.5 57 L 29.5 59 L 28.5 57 Z " /><path fill="rgb(254,255,255)" stroke="rgb(254,255,255)" stroke-width="1" opacity="1" d="M 34.5 60 L 37 61.5 L 35.5 62 L 34.5 60 Z " /><path fill="rgb(254,255,255)" stroke="rgb(254,255,255)" stroke-width="1" opacity="1" d="M 42.5 64 L 43.5 66 L 42.5 64 Z " /><path fill="rgb(254,255,255)" stroke="rgb(254,255,255)" stroke-width="1" opacity="1" d="M 48.5 67 L 49.5 69 L 48.5 67 Z " /><path fill="rgb(254,255,255)" stroke="rgb(254,255,255)" stroke-width="1" opacity="1" d="M 77.5 67 L 78.5 69 L 77.5 67 Z " /><path fill="rgb(254,255,255)" stroke="rgb(254,255,255)" stroke-width="1" opacity="1" d="M 54.5 70 L 55.5 72 L 54.5 70 Z " /><path fill="rgb(254,255,255)" stroke="rgb(254,255,255)" stroke-width="1" opacity="1" d="M 83.5 70 L 84.5 72 L 83.5 70 Z " /><path fill="rgb(254,255,255)" stroke="rgb(254,255,255)" stroke-width="1" opacity="1" d="M 60.5 73 L 64 75.5 L 62.5 75 L 60.5 73 Z " /><path fill="rgb(254,255,255)" stroke="rgb(254,255,255)" stroke-width="1" opacity="1" d="M 66.5 76 L 70 78.5 L 68.5 78 L 66.5 76 Z " /><path fill="rgb(254,255,255)" stroke="rgb(254,255,255)" stroke-width="1" opacity="1" d="M 74.5 80 L 75.5 82 L 74.5 80 Z " /><path fill="rgb(254,255,255)" stroke="rgb(254,255,255)" stroke-width="1" opacity="1" d="M 80.5 83 L 84 85.5 L 82.5 85 L 80.5 83 Z " /><path fill="rgb(254,255,255)" stroke="rgb(254,255,255)" stroke-width="1" opacity="1" d="M 26.5 102 L 29 103.5 L 27.5 103 L 26.5 102 Z " /><path fill="rgb(254,255,255)" stroke="rgb(254,255,255)" stroke-width="1" opacity="1" d="M 12.5 104 L 13 105.5 L 11 106.5 L 12.5 104 Z " /><path fill="rgb(254,255,255)" stroke="rgb(254,255,255)" stroke-width="1" opacity="1" d="M 10.5 108 L 11.5 110 L 10.5 108 Z " /><path fill="rgb(254,255,255)" stroke="rgb(254,255,255)" stroke-width="1" opacity="1" d="M 19.5 113 L 20.5 115 L 19.5 113 Z " /><path fill="rgb(254,255,255)" stroke="rgb(254,255,255)" stroke-width="1" opacity="1" d="M 48.5 113 L 49.5 115 L 48.5 113 Z " /><path fill="rgb(254,255,255)" stroke="rgb(254,255,255)" stroke-width="1" opacity="1" d="M 25.5 116 L 26.5 118 L 25.5 116 Z " /><path fill="rgb(254,255,255)" stroke="rgb(254,255,255)" stroke-width="1" opacity="1" d="M 51.5 117 L 53.5 120 L 51.5 117 Z " /><path fill="rgb(254,255,255)" stroke="rgb(254,255,255)" stroke-width="1" opacity="1" d="M 31.5 119 L 32.5 121 L 31.5 119 Z " /><path fill="rgb(254,255,255)" stroke="rgb(254,255,255)" stroke-width="1" opacity="1" d="M 57.5 122 L 60 123.5 L 58.5 124 L 57.5 122 Z " /><path fill="rgb(254,255,255)" stroke="rgb(254,255,255)" stroke-width="1" opacity="1" d="M 66.5 123 L 70 124.5 L 68.5 124 Q 65.5 124.5 66.5 123 Z " /><path fill="rgb(254,255,255)" stroke="rgb(254,255,255)" stroke-width="1" opacity="1" d="M 62.5 124 L 65 124.5 L 62.5 125 L 62.5 124 Z " /><path fill="rgb(254,255,255)" stroke="rgb(254,255,255)" stroke-width="1" opacity="1" d="M 51.5 129 L 52.5 131 L 51.5 129 Z " /><path fill="rgb(254,255,255)" stroke="rgb(254,255,255)" stroke-width="1" opacity="1" d="M 80.5 129 L 81.5 131 L 80.5 129 Z " /><path fill="rgb(254,255,255)" stroke="rgb(254,255,255)" stroke-width="1" opacity="1" d="M 57.5 132 L 58.5 134 L 57.5 132 Z " /><path fill="rgb(254,255,255)" stroke="rgb(254,255,255)" stroke-width="1" opacity="1" d="M 63.5 135 L 64.5 137 L 63.5 135 Z " /><path fill="rgb(254,255,255)" stroke="rgb(254,255,255)" stroke-width="1" opacity="1" d="M 76.5 142 L 79 143.5 L 77.5 143 L 76.5 142 Z " /><path fill="rgb(254,255,255)" stroke="rgb(254,255,255)" stroke-width="1" opacity="1" d="M 83.5 145 L 84.5 147 L 83.5 145 Z " /><path fill="rgb(195,39,37)" stroke="rgb(195,39,37)" stroke-width="1" opacity="1" d="M 6.5 24 L 8.5 27 L 86.5 67 L 94.5 68 L 142.5 47 L 143 50.5 L 96.5 72 L 88.5 72 L 6 29.5 L 6.5 24 Z " /><path fill="rgb(195,39,37)" stroke="rgb(195,39,37)" stroke-width="1" opacity="1" d="M 9.5 44 L 11 44.5 L 10 49.5 L 89.5 90 L 94.5 90 L 133.5 72 L 143 69 L 141.5 73 L 95.5 94 L 89.5 94 L 11.5 55 L 6 50.5 Q 5 46 7.5 45 L 9.5 44 Z " /><path fill="rgb(240,242,242)" stroke="rgb(240,242,242)" stroke-width="1" opacity="1" d="M 49.5 3 L 51 3.5 L 47.5 5 L 47.5 4 L 49.5 3 Z " /><path fill="rgb(240,242,242)" stroke="rgb(240,242,242)" stroke-width="1" opacity="1" d="M 40.5 7 L 42 7.5 L 38.5 9 L 38.5 8 L 40.5 7 Z " /><path fill="rgb(240,242,242)" stroke="rgb(240,242,242)" stroke-width="1" opacity="1" d="M 33.5 10 L 35 10.5 L 32.5 12 L 33.5 10 Z " /><path fill="rgb(240,242,242)" stroke="rgb(240,242,242)" stroke-width="1" opacity="1" d="M 20.5 16 L 22 16.5 L 18.5 18 L 18.5 17 L 20.5 16 Z " /><path fill="rgb(240,242,242)" stroke="rgb(240,242,242)" stroke-width="1" opacity="1" d="M 7.5 22 L 5.5 25 L 7.5 22 Z " /><path fill="rgb(240,242,242)" stroke="rgb(240,242,242)" stroke-width="1" opacity="1" d="M 5.5 29 L 7.5 32 L 5.5 29 Z " /><path fill="rgb(240,242,242)" stroke="rgb(240,242,242)" stroke-width="1" opacity="1" d="M 13.5 34 L 16 35 L 16.5 37 L 18 36.5 L 17.5 38 L 19.5 37 L 22 38 L 22.5 40 L 24 39.5 L 23.5 41 L 25.5 40 L 30 42 L 30.5 44 Q 31.7 41.8 33 44.5 L 33.5 46 L 36 45 L 37.5 48 L 39 47.5 L 39.5 49 L 41 48.5 Q 40.3 50.8 42.5 50 L 45 50.5 L 45.5 52 L 47 51.5 L 47.5 53 L 49 52.5 L 49.5 54 L 51 53.5 L 51.5 55 L 53 54.5 L 53.5 56 L 55 55.5 Q 54.3 57.8 56.5 57 L 59 57.5 L 59.5 59 L 61 58.5 L 61.5 60 L 63 59.5 L 63.5 61 L 65.5 61 L 69 62 L 69.5 64 L 71.5 64 L 75 65 L 75.5 67 L 77 66.5 L 77.5 68 L 79.5 68 Q 81.8 67.3 81 69.5 L 83 69.5 L 83.5 71 L 85.5 71 L 88.5 73 L 89.5 72 L 94 76.5 L 95 83.5 L 90.5 88 L 86.5 88 L 84 87 L 83.5 85 L 82 85.5 L 82.5 84 L 80.5 85 L 76 83 L 75.5 81 L 73.5 81 L 70 80 L 69.5 78 L 68 78.5 L 68.5 77 L 66.5 78 L 64 77 L 63.5 75 L 62 75.5 L 62.5 74 L 60.5 75 L 56 73 L 55.5 71 L 53.5 71 L 50 70 L 49.5 68 Q 48.2 70.3 47 67.5 L 46.5 66 L 44 67 L 43.5 65 L 41.5 65 L 36 62.5 L 36.5 61 L 34.5 62 L 30 60 L 29.5 58 Q 28.3 60.3 27 57.5 L 26.5 56 L 25.5 57 Q 23.3 52.7 21 54.5 L 20.5 53 L 19 53.5 Q 19.8 51.3 17.5 52 L 15 51.5 L 14.5 50 L 13 50.5 L 12.5 49 L 11 49.5 L 10 46.5 L 12 43.5 Q 10.8 38.8 13 37.5 L 12 35.5 L 13.5 34 Z " /><path fill="rgb(240,242,242)" stroke="rgb(240,242,242)" stroke-width="1" opacity="1" d="M 8.5 43 L 10 43.5 L 7.5 45 L 8.5 43 Z " /><path fill="rgb(240,242,242)" stroke="rgb(240,242,242)" stroke-width="1" opacity="1" d="M 5.5 50 L 8.5 54 L 5.5 50 Z " /><path fill="rgb(240,242,242)" stroke="rgb(240,242,242)" stroke-width="1" opacity="1" d="M 17.5 69 L 18.5 71 L 17.5 69 Z " /><path fill="rgb(240,242,242)" stroke="rgb(240,242,242)" stroke-width="1" opacity="1" d="M 20.5 73 L 21.5 75 L 20.5 73 Z " /><path fill="rgb(240,242,242)" stroke="rgb(240,242,242)" stroke-width="1" opacity="1" d="M 147.5 74 L 153 79.5 L 153 82.5 L 152 82.5 L 152 79.5 L 147.5 74 Z " /><path fill="rgb(240,242,242)" stroke="rgb(240,242,242)" stroke-width="1" opacity="1" d="M 144.5 86 Q 148.3 84.8 147 88.5 L 146 93.5 L 149 100.5 L 147.5 102 L 142.5 102 L 132.5 105 L 62.5 119 L 58 115.5 L 57 110.5 L 60.5 104 L 85.5 98 L 105.5 95 L 114.5 92 L 139.5 88 L 144.5 86 Z " /><path fill="rgb(240,242,242)" stroke="rgb(240,242,242)" stroke-width="1" opacity="1" d="M 12.5 96 L 16.5 98 L 18.5 98 Q 20.8 97.3 20 99.5 L 22 99.5 L 22.5 101 L 24.5 101 L 27.5 103 L 30 103.5 L 30.5 105 L 32.5 105 Q 34.8 104.3 34 106.5 L 36 106.5 L 36.5 108 L 38.5 108 Q 40.8 107.3 40 109.5 L 42 109.5 L 42.5 111 L 44 110.5 L 44.5 112 L 46 111.5 L 46.5 113 L 48 112.5 L 48.5 114 L 50 113.5 L 49.5 115 L 53 117.5 Q 50.8 118.8 53.5 120 L 57 121 L 57.5 123 L 59 122.5 L 58.5 124 L 65.5 123 L 68.5 124 L 70.5 124 Q 72.8 123.3 72 125.5 L 75 126.5 L 75.5 128 L 76.5 127 Q 78.3 130.1 80 128.5 L 81.5 131 L 83.5 131 L 86.5 133 L 88 132.5 L 88.5 134 L 90.5 134 L 93 135.5 Q 95.8 138.2 95 144.5 Q 93.7 148.7 87.5 148 L 85 147.5 L 84.5 146 L 82.5 146 Q 80.3 146.8 81 144.5 L 79 144.5 L 78.5 143 L 77 143.5 L 77.5 142 L 75.5 143 L 74.5 141 L 73 141.5 L 72.5 140 L 71 140.5 L 70.5 139 L 68.5 139 Q 66.3 139.8 67 137.5 L 65 137.5 L 64.5 136 L 62.5 136 Q 60.3 136.8 61 134.5 L 59 134.5 L 58.5 133 L 56.5 133 Q 54.3 133.8 55 131.5 L 53 131.5 L 52.5 130 Q 51 132.5 49.5 129 Q 46.2 130.1 47 127.5 L 44.5 127 L 41 126 L 40.5 124 Q 39.3 126.2 38 123.5 L 37.5 122 L 36.5 123 Q 34.8 119.9 33 121.5 L 31.5 119 L 29.5 119 Q 26.2 120.1 27 117.5 L 24 116.5 L 23.5 115 L 21 116 L 20.5 114 Q 19.2 116.3 18 113.5 L 17.5 112 Q 16 114.5 14.5 111 Q 11.2 112.1 12 109.5 L 10 109.5 L 10.5 107 L 12 106.5 L 11.5 105 L 13 105.5 Q 13.8 102.9 10.5 104 L 10.5 103 Q 13.5 103.9 12 99.5 L 13 97.5 L 12.5 96 Z M 63 124 L 63 125 L 65 125 L 63 124 Z " /><path fill="rgb(240,242,242)" stroke="rgb(240,242,242)" stroke-width="1" opacity="1" d="M 162.5 102 L 165.5 106 L 162.5 102 Z " /><path fill="rgb(240,242,242)" stroke="rgb(240,242,242)" stroke-width="1" opacity="1" d="M 6.5 105 L 5.5 107 L 6.5 105 Z " /><path fill="rgb(240,242,242)" stroke="rgb(240,242,242)" stroke-width="1" opacity="1" d="M 165.5 121 L 162.5 125 L 165.5 121 Z " /><path fill="rgb(144,198,215)" stroke="rgb(144,198,215)" stroke-width="1" opacity="1" d="M 153.5 47 Q 161.1 45.9 163 50.5 Q 164.5 58.5 159.5 60 L 96.5 89 L 91.5 90 L 88 88.5 Q 93.5 88 95 83.5 Q 96.1 74.4 90 72.5 L 91.5 73 L 102.5 70 L 153.5 47 Z " /><path fill="rgb(144,198,215)" stroke="rgb(144,198,215)" stroke-width="1" opacity="1" d="M 167.5 51 L 168 55.5 L 167 55.5 L 167.5 51 Z " /><path fill="rgb(144,198,215)" stroke="rgb(144,198,215)" stroke-width="1" opacity="1" d="M 10.5 54 L 11 57.5 L 10 57.5 L 10.5 54 Z " /><path fill="rgb(144,198,215)" stroke="rgb(144,198,215)" stroke-width="1" opacity="1" d="M 11.5 60 L 12.5 62 L 11.5 60 Z " /><path fill="rgb(144,198,215)" stroke="rgb(144,198,215)" stroke-width="1" opacity="1" d="M 164.5 61 L 162.5 64 L 164.5 61 Z " /><path fill="rgb(144,198,215)" stroke="rgb(144,198,215)" stroke-width="1" opacity="1" d="M 145.5 71 L 147 73.5 L 145 72.5 L 145.5 71 Z " /><path fill="rgb(144,198,215)" stroke="rgb(144,198,215)" stroke-width="1" opacity="1" d="M 144.5 75 L 147.5 75 L 152 79.5 L 140.5 83 L 121.5 86 L 121.5 85 L 126.5 84 L 144.5 75 Z " /><path fill="rgb(144,198,215)" stroke="rgb(144,198,215)" stroke-width="1" opacity="1" d="M 20.5 77 Q 22.8 76.3 22 78.5 L 39 102.5 L 37.5 102 L 7 87 L 6 84.5 L 20.5 77 Z " /><path fill="rgb(144,198,215)" stroke="rgb(144,198,215)" stroke-width="1" opacity="1" d="M 151.5 83 L 150.5 85 L 151.5 83 Z " /><path fill="rgb(144,198,215)" stroke="rgb(144,198,215)" stroke-width="1" opacity="1" d="M 5.5 86 L 6 88.5 L 5 88.5 L 5.5 86 Z " /><path fill="rgb(144,198,215)" stroke="rgb(144,198,215)" stroke-width="1" opacity="1" d="M 141.5 86 L 144 86.5 L 141.5 87 L 141.5 86 Z " /><path fill="rgb(144,198,215)" stroke="rgb(144,198,215)" stroke-width="1" opacity="1" d="M 136.5 87 L 140 87.5 L 136.5 88 L 136.5 87 Z " /><path fill="rgb(144,198,215)" stroke="rgb(144,198,215)" stroke-width="1" opacity="1" d="M 70.5 88 L 82 93.5 Q 80.8 96.3 75.5 95 L 70.5 88 Z " /><path fill="rgb(144,198,215)" stroke="rgb(144,198,215)" stroke-width="1" opacity="1" d="M 122.5 90 L 125 90.5 L 122.5 91 L 122.5 90 Z " /><path fill="rgb(144,198,215)" stroke="rgb(144,198,215)" stroke-width="1" opacity="1" d="M 117.5 91 L 120 91.5 L 117.5 92 L 117.5 91 Z " /><path fill="rgb(144,198,215)" stroke="rgb(144,198,215)" stroke-width="1" opacity="1" d="M 10.5 93 L 13 94.5 L 11.5 94 L 10.5 93 Z " /><path fill="rgb(144,198,215)" stroke="rgb(144,198,215)" stroke-width="1" opacity="1" d="M 107.5 93 L 110 93.5 L 107.5 94 L 107.5 93 Z " /><path fill="rgb(144,198,215)" stroke="rgb(144,198,215)" stroke-width="1" opacity="1" d="M 102.5 94 L 106 94.5 L 102.5 95 L 102.5 94 Z " /><path fill="rgb(144,198,215)" stroke="rgb(144,198,215)" stroke-width="1" opacity="1" d="M 97.5 95 L 100 95.5 L 97.5 96 L 97.5 95 Z " /><path fill="rgb(144,198,215)" stroke="rgb(144,198,215)" stroke-width="1" opacity="1" d="M 92.5 96 L 95 96.5 L 92.5 97 L 92.5 96 Z " /><path fill="rgb(144,198,215)" stroke="rgb(144,198,215)" stroke-width="1" opacity="1" d="M 87.5 97 L 91 97.5 L 87.5 98 L 87.5 97 Z " /><path fill="rgb(144,198,215)" stroke="rgb(144,198,215)" stroke-width="1" opacity="1" d="M 78.5 99 L 81 99.5 L 78.5 100 L 78.5 99 Z " /><path fill="rgb(144,198,215)" stroke="rgb(144,198,215)" stroke-width="1" opacity="1" d="M 73.5 100 L 76 100.5 L 73.5 101 L 73.5 100 Z " /><path fill="rgb(144,198,215)" stroke="rgb(144,198,215)" stroke-width="1" opacity="1" d="M 142.5 102 L 145 102.5 L 142.5 103 L 142.5 102 Z " /><path fill="rgb(144,198,215)" stroke="rgb(144,198,215)" stroke-width="1" opacity="1" d="M 137.5 103 L 141 103.5 L 137.5 104 L 137.5 103 Z " /><path fill="rgb(144,198,215)" stroke="rgb(144,198,215)" stroke-width="1" opacity="1" d="M 133.5 104 L 136 104.5 L 133.5 105 L 133.5 104 Z " /><path fill="rgb(144,198,215)" stroke="rgb(144,198,215)" stroke-width="1" opacity="1" d="M 128.5 105 L 131 105.5 L 128.5 106 L 128.5 105 Z " /><path fill="rgb(144,198,215)" stroke="rgb(144,198,215)" stroke-width="1" opacity="1" d="M 123.5 106 L 126 106.5 L 123.5 107 L 123.5 106 Z " /><path fill="rgb(144,198,215)" stroke="rgb(144,198,215)" stroke-width="1" opacity="1" d="M 5.5 107 L 6 109.5 L 5 109.5 L 5.5 107 Z " /><path fill="rgb(144,198,215)" stroke="rgb(144,198,215)" stroke-width="1" opacity="1" d="M 118.5 107 L 121 107.5 L 118.5 108 L 118.5 107 Z " /><path fill="rgb(144,198,215)" stroke="rgb(144,198,215)" stroke-width="1" opacity="1" d="M 152.5 108 Q 159.3 107.1 162 109 Q 163.6 111.1 163 116.5 L 162 119 L 155.5 123 L 102.5 147 L 91.5 148 L 91.5 147 L 95 144.5 Q 96 136.5 91.5 134 L 90 133.5 L 96.5 133 L 101.5 131 L 152.5 108 Z " /><path fill="rgb(144,198,215)" stroke="rgb(144,198,215)" stroke-width="1" opacity="1" d="M 108.5 109 L 111 109.5 L 108.5 110 L 108.5 109 Z " /><path fill="rgb(144,198,215)" stroke="rgb(144,198,215)" stroke-width="1" opacity="1" d="M 103.5 110 L 107 110.5 L 103.5 111 L 103.5 110 Z " /><path fill="rgb(144,198,215)" stroke="rgb(144,198,215)" stroke-width="1" opacity="1" d="M 167.5 111 L 168 116.5 L 167 116.5 L 167.5 111 Z " /><path fill="rgb(144,198,215)" stroke="rgb(144,198,215)" stroke-width="1" opacity="1" d="M 93.5 112 L 96 112.5 L 93.5 113 L 93.5 112 Z " /><path fill="rgb(144,198,215)" stroke="rgb(144,198,215)" stroke-width="1" opacity="1" d="M 88.5 113 L 92 113.5 L 88.5 114 L 88.5 113 Z " /><path fill="rgb(144,198,215)" stroke="rgb(144,198,215)" stroke-width="1" opacity="1" d="M 50.5 114 L 51.5 116 L 50.5 114 Z " /><path fill="rgb(144,198,215)" stroke="rgb(144,198,215)" stroke-width="1" opacity="1" d="M 84.5 114 L 87 114.5 L 84.5 115 L 84.5 114 Z " /><path fill="rgb(144,198,215)" stroke="rgb(144,198,215)" stroke-width="1" opacity="1" d="M 123.5 114 L 127 114.5 L 99.5 127 L 88.5 128 L 80 123.5 L 89.5 121 L 95.5 121 L 103.5 118 L 109.5 118 L 123.5 114 Z " /><path fill="rgb(144,198,215)" stroke="rgb(144,198,215)" stroke-width="1" opacity="1" d="M 79.5 115 L 82 115.5 L 79.5 116 L 79.5 115 Z " /><path fill="rgb(144,198,215)" stroke="rgb(144,198,215)" stroke-width="1" opacity="1" d="M 73.5 116 L 77 116.5 L 73.5 117 L 73.5 116 Z " /><path fill="rgb(144,198,215)" stroke="rgb(144,198,215)" stroke-width="1" opacity="1" d="M 53.5 118 L 55.5 121 L 53.5 118 Z " /><path fill="rgb(144,198,215)" stroke="rgb(144,198,215)" stroke-width="1" opacity="1" d="M 20.5 119 L 23 120.5 L 21.5 121 L 20.5 119 Z " /><path fill="rgb(144,198,215)" stroke="rgb(144,198,215)" stroke-width="1" opacity="1" d="M 28.5 119 L 32 120.5 L 30.5 121 L 28.5 119 Z " /><path fill="rgb(144,198,215)" stroke="rgb(144,198,215)" stroke-width="1" opacity="1" d="M 26.5 122 L 29 123.5 L 27.5 124 L 26.5 122 Z " /><path fill="rgb(144,198,215)" stroke="rgb(144,198,215)" stroke-width="1" opacity="1" d="M 35.5 122 L 38 123.5 L 36.5 124 L 35.5 122 Z " /><path fill="rgb(144,198,215)" stroke="rgb(144,198,215)" stroke-width="1" opacity="1" d="M 33.5 126 L 36 127.5 L 34.5 127 L 33.5 126 Z " /><path fill="rgb(144,198,215)" stroke="rgb(144,198,215)" stroke-width="1" opacity="1" d="M 75.5 126 L 78 127.5 L 76.5 127 L 75.5 126 Z " /><path fill="rgb(144,198,215)" stroke="rgb(144,198,215)" stroke-width="1" opacity="1" d="M 48.5 129 L 51 130.5 L 49.5 130 L 48.5 129 Z " /><path fill="rgb(144,198,215)" stroke="rgb(144,198,215)" stroke-width="1" opacity="1" d="M 81.5 129 L 84 130.5 L 82.5 130 L 81.5 129 Z " /></svg>